<svg width="20" height="20" viewBox="0 0 20 20" fill="none" xmlns="http://www.w3.org/2000/svg">
    <path fill-rule="evenodd" clip-rule="evenodd"
        d="M18.3332 10C18.3332 5.39752 14.6023 1.66669 9.99984 1.66669C5.39734 1.66669 1.6665 5.39752 1.6665 10C1.6665 14.6025 5.39734 18.3334 9.99984 18.3334C14.6023 18.3334 18.3332 14.6025 18.3332 10ZM9.99984 5.20835C10.1656 5.20835 10.3246 5.2742 10.4418 5.39141C10.559 5.50862 10.6248 5.66759 10.6248 5.83335V10.8334C10.6248 10.9991 10.559 11.1581 10.4418 11.2753C10.3246 11.3925 10.1656 11.4584 9.99984 11.4584C9.83408 11.4584 9.67511 11.3925 9.5579 11.2753C9.44069 11.1581 9.37484 10.9991 9.37484 10.8334V5.83335C9.37484 5.66759 9.44069 5.50862 9.5579 5.39141C9.67511 5.2742 9.83408 5.20835 9.99984 5.20835ZM9.99984 14.1667C10.2209 14.1667 10.4328 14.0789 10.5891 13.9226C10.7454 13.7663 10.8332 13.5544 10.8332 13.3334C10.8332 13.1123 10.7454 12.9004 10.5891 12.7441C10.4328 12.5878 10.2209 12.5 9.99984 12.5C9.77882 12.5 9.56686 12.5878 9.41058 12.7441C9.2543 12.9004 9.1665 13.1123 9.1665 13.3334C9.1665 13.5544 9.2543 13.7663 9.41058 13.9226C9.56686 14.0789 9.77882 14.1667 9.99984 14.1667Z"
        fill="#FAE700" />
</svg>